<?xml version="1.0" encoding="UTF-8" standalone="no"?>
<!DOCTYPE svg PUBLIC "-//W3C//DTD SVG 1.1//EN" "http://www.w3.org/Graphics/SVG/1.1/DTD/svg11.dtd">
<svg width="100%" height="100%" viewBox="0 0 1000 1000" version="1.1" xmlns="http://www.w3.org/2000/svg" xmlns:xlink="http://www.w3.org/1999/xlink" xml:space="preserve" xmlns:serif="http://www.serif.com/" style="fill-rule:evenodd;clip-rule:evenodd;stroke-linejoin:round;stroke-miterlimit:1.41421;">
    <path d="M941,549L59,549C31.9,549 10,527.1 10,500C10,472.9 31.9,451 59,451L941,451C968.1,451 990,472.9 990,500C990,527.1 968.1,549 941,549ZM941,157L59,157C31.9,157 10,135.1 10,108C10,80.9 31.9,59 59,59L941,59C968.1,59 990,80.9 990,108C990,135.1 968.1,157 941,157ZM59,843L941,843C968.1,843 990,864.9 990,892C990,919.1 968.1,941 941,941L59,941C31.9,941 10,919.1 10,892C10,864.9 31.9,843 59,843Z" style="fill:white;fill-rule:nonzero;"/>
</svg>
